<mxfile host="app.diagrams.net" modified="2024-04-27T20:28:55.709Z" agent="Mozilla/5.0 (Windows NT 10.0; Win64; x64) AppleWebKit/537.36 (KHTML, like Gecko) Chrome/124.0.0.0 Safari/537.36" etag="4D5W03VOvttZFC0L-sOp" version="24.3.0" type="device">
  <diagram name="PÃ¡gina-1" id="3_A76vOdhGDy3D3fZQMR">
    <mxGraphModel dx="1050" dy="565" grid="1" gridSize="10" guides="1" tooltips="1" connect="1" arrows="1" fold="1" page="1" pageScale="1" pageWidth="827" pageHeight="1169" math="0" shadow="0">
      <root>
        <mxCell id="0" />
        <mxCell id="1" parent="0" />
        <mxCell id="InQ16TTvX-Svi3qiFVbZ-9" style="edgeStyle=orthogonalEdgeStyle;rounded=0;orthogonalLoop=1;jettySize=auto;html=1;exitX=0.5;exitY=1;exitDx=0;exitDy=0;entryX=0.5;entryY=0;entryDx=0;entryDy=0;" edge="1" parent="1" source="InQ16TTvX-Svi3qiFVbZ-1" target="InQ16TTvX-Svi3qiFVbZ-3">
          <mxGeometry relative="1" as="geometry" />
        </mxCell>
        <mxCell id="InQ16TTvX-Svi3qiFVbZ-10" style="edgeStyle=orthogonalEdgeStyle;rounded=0;orthogonalLoop=1;jettySize=auto;html=1;exitX=0;exitY=1;exitDx=0;exitDy=0;" edge="1" parent="1" source="InQ16TTvX-Svi3qiFVbZ-1" target="InQ16TTvX-Svi3qiFVbZ-2">
          <mxGeometry relative="1" as="geometry" />
        </mxCell>
        <mxCell id="InQ16TTvX-Svi3qiFVbZ-11" style="edgeStyle=orthogonalEdgeStyle;rounded=0;orthogonalLoop=1;jettySize=auto;html=1;exitX=1;exitY=1;exitDx=0;exitDy=0;" edge="1" parent="1" source="InQ16TTvX-Svi3qiFVbZ-1" target="InQ16TTvX-Svi3qiFVbZ-4">
          <mxGeometry relative="1" as="geometry" />
        </mxCell>
        <mxCell id="InQ16TTvX-Svi3qiFVbZ-1" value="A" style="rounded=1;whiteSpace=wrap;html=1;" vertex="1" parent="1">
          <mxGeometry x="360" y="40" width="80" height="40" as="geometry" />
        </mxCell>
        <mxCell id="InQ16TTvX-Svi3qiFVbZ-12" style="edgeStyle=orthogonalEdgeStyle;rounded=0;orthogonalLoop=1;jettySize=auto;html=1;exitX=0;exitY=1;exitDx=0;exitDy=0;" edge="1" parent="1" source="InQ16TTvX-Svi3qiFVbZ-2" target="InQ16TTvX-Svi3qiFVbZ-6">
          <mxGeometry relative="1" as="geometry" />
        </mxCell>
        <mxCell id="InQ16TTvX-Svi3qiFVbZ-13" style="edgeStyle=orthogonalEdgeStyle;rounded=0;orthogonalLoop=1;jettySize=auto;html=1;exitX=1;exitY=1;exitDx=0;exitDy=0;" edge="1" parent="1" source="InQ16TTvX-Svi3qiFVbZ-2" target="InQ16TTvX-Svi3qiFVbZ-8">
          <mxGeometry relative="1" as="geometry" />
        </mxCell>
        <mxCell id="InQ16TTvX-Svi3qiFVbZ-2" value="B" style="rounded=1;whiteSpace=wrap;html=1;" vertex="1" parent="1">
          <mxGeometry x="200" y="160" width="80" height="40" as="geometry" />
        </mxCell>
        <mxCell id="InQ16TTvX-Svi3qiFVbZ-3" value="C" style="rounded=1;whiteSpace=wrap;html=1;" vertex="1" parent="1">
          <mxGeometry x="360" y="160" width="80" height="40" as="geometry" />
        </mxCell>
        <mxCell id="InQ16TTvX-Svi3qiFVbZ-36" style="edgeStyle=orthogonalEdgeStyle;rounded=0;orthogonalLoop=1;jettySize=auto;html=1;exitX=0.5;exitY=1;exitDx=0;exitDy=0;entryX=0.5;entryY=0;entryDx=0;entryDy=0;" edge="1" parent="1" source="InQ16TTvX-Svi3qiFVbZ-4" target="InQ16TTvX-Svi3qiFVbZ-35">
          <mxGeometry relative="1" as="geometry" />
        </mxCell>
        <mxCell id="InQ16TTvX-Svi3qiFVbZ-4" value="D" style="rounded=1;whiteSpace=wrap;html=1;" vertex="1" parent="1">
          <mxGeometry x="520" y="160" width="80" height="40" as="geometry" />
        </mxCell>
        <mxCell id="InQ16TTvX-Svi3qiFVbZ-6" value="E" style="rounded=1;whiteSpace=wrap;html=1;" vertex="1" parent="1">
          <mxGeometry x="140" y="280" width="80" height="40" as="geometry" />
        </mxCell>
        <mxCell id="InQ16TTvX-Svi3qiFVbZ-7" value="H" style="rounded=1;whiteSpace=wrap;html=1;" vertex="1" parent="1">
          <mxGeometry x="260" y="400" width="80" height="40" as="geometry" />
        </mxCell>
        <mxCell id="InQ16TTvX-Svi3qiFVbZ-46" style="edgeStyle=orthogonalEdgeStyle;rounded=0;orthogonalLoop=1;jettySize=auto;html=1;exitX=0.5;exitY=1;exitDx=0;exitDy=0;entryX=0.5;entryY=0;entryDx=0;entryDy=0;" edge="1" parent="1" source="InQ16TTvX-Svi3qiFVbZ-8" target="InQ16TTvX-Svi3qiFVbZ-7">
          <mxGeometry relative="1" as="geometry" />
        </mxCell>
        <mxCell id="InQ16TTvX-Svi3qiFVbZ-8" value="F" style="rounded=1;whiteSpace=wrap;html=1;" vertex="1" parent="1">
          <mxGeometry x="260" y="280" width="80" height="40" as="geometry" />
        </mxCell>
        <mxCell id="InQ16TTvX-Svi3qiFVbZ-16" value="1" style="ellipse;whiteSpace=wrap;html=1;aspect=fixed;strokeWidth=2;fontFamily=Tahoma;spacingBottom=4;spacingRight=2;strokeColor=#d3d3d3;" vertex="1" parent="1">
          <mxGeometry x="250" y="140" width="20" height="20" as="geometry" />
        </mxCell>
        <mxCell id="InQ16TTvX-Svi3qiFVbZ-35" value="G" style="rounded=1;whiteSpace=wrap;html=1;" vertex="1" parent="1">
          <mxGeometry x="520" y="280" width="80" height="40" as="geometry" />
        </mxCell>
        <mxCell id="InQ16TTvX-Svi3qiFVbZ-39" value="4" style="ellipse;whiteSpace=wrap;html=1;aspect=fixed;strokeWidth=2;fontFamily=Tahoma;spacingBottom=4;spacingRight=2;strokeColor=#d3d3d3;" vertex="1" parent="1">
          <mxGeometry x="570" y="140" width="20" height="20" as="geometry" />
        </mxCell>
        <mxCell id="InQ16TTvX-Svi3qiFVbZ-40" value="9" style="ellipse;whiteSpace=wrap;html=1;aspect=fixed;strokeWidth=2;fontFamily=Tahoma;spacingBottom=4;spacingRight=2;strokeColor=#d3d3d3;" vertex="1" parent="1">
          <mxGeometry x="414" y="140" width="20" height="20" as="geometry" />
        </mxCell>
        <mxCell id="InQ16TTvX-Svi3qiFVbZ-41" value="2" style="ellipse;whiteSpace=wrap;html=1;aspect=fixed;strokeWidth=2;fontFamily=Tahoma;spacingBottom=4;spacingRight=2;strokeColor=#d3d3d3;" vertex="1" parent="1">
          <mxGeometry x="310" y="260" width="20" height="20" as="geometry" />
        </mxCell>
        <mxCell id="InQ16TTvX-Svi3qiFVbZ-42" value="7" style="ellipse;whiteSpace=wrap;html=1;aspect=fixed;strokeWidth=2;fontFamily=Tahoma;spacingBottom=4;spacingRight=2;strokeColor=#d3d3d3;" vertex="1" parent="1">
          <mxGeometry x="190" y="260" width="20" height="20" as="geometry" />
        </mxCell>
        <mxCell id="InQ16TTvX-Svi3qiFVbZ-43" value="6" style="ellipse;whiteSpace=wrap;html=1;aspect=fixed;strokeWidth=2;fontFamily=Tahoma;spacingBottom=4;spacingRight=2;strokeColor=#d3d3d3;" vertex="1" parent="1">
          <mxGeometry x="310" y="380" width="20" height="20" as="geometry" />
        </mxCell>
        <mxCell id="InQ16TTvX-Svi3qiFVbZ-44" value="9" style="ellipse;whiteSpace=wrap;html=1;aspect=fixed;strokeWidth=2;fontFamily=Tahoma;spacingBottom=4;spacingRight=2;strokeColor=#d3d3d3;" vertex="1" parent="1">
          <mxGeometry x="570" y="260" width="20" height="20" as="geometry" />
        </mxCell>
      </root>
    </mxGraphModel>
  </diagram>
</mxfile>
